<svg xmlns="http://www.w3.org/2000/svg" xmlns:xlink="http://www.w3.org/1999/xlink" width="700" zoomAndPan="magnify" viewBox="0 0 525 299.999988" height="400" preserveAspectRatio="xMidYMid meet" version="1.0"><defs><clipPath id="0f7d2952bb"><path d="M 3 199 L 165 199 L 165 297.660156 L 3 297.660156 Z M 3 199 " clip-rule="nonzero"/></clipPath><clipPath id="5d6e627549"><path d="M 344 2.339844 L 506 2.339844 L 506 230 L 344 230 Z M 344 2.339844 " clip-rule="nonzero"/></clipPath></defs><path fill="#000000" d="M 27.359375 290.742188 L 140.980469 223.183594 " fill-opacity="1" fill-rule="nonzero"/><g clip-path="url(#0f7d2952bb)"><path stroke-linecap="round" transform="matrix(0.922683, 0, 0, 0.922683, -29.449072, 9.258845)" fill="none" stroke-linejoin="miter" d="M 61.568772 305.070542 L 184.710867 231.850803 " stroke="#a6a6a6" stroke-width="4.5" stroke-opacity="1" stroke-miterlimit="4"/></g><path stroke-linecap="round" transform="matrix(0.922683, 0, 0, 0.922683, -29.449072, 9.258845)" fill-opacity="1" fill="#000000" fill-rule="nonzero" stroke-linejoin="miter" d="M 184.710867 231.850803 L 307.848729 73.21862 " stroke="#a6a6a6" stroke-width="4.5" stroke-opacity="1" stroke-miterlimit="4"/><path stroke-linecap="round" transform="matrix(0.922683, 0, 0, 0.922683, -29.449072, 9.258845)" fill-opacity="1" fill="#000000" fill-rule="nonzero" stroke-linejoin="miter" d="M 307.848729 73.21862 L 430.990824 122.027546 " stroke="#a6a6a6" stroke-width="4.5" stroke-opacity="1" stroke-miterlimit="4"/><path stroke-linecap="round" transform="matrix(0.922683, 0, 0, 0.922683, -29.449072, 9.258845)" fill-opacity="1" fill="#000000" fill-rule="nonzero" stroke-linejoin="miter" d="M 430.990824 122.027546 L 554.128685 109.826373 " stroke="#a6a6a6" stroke-width="4.5" stroke-opacity="1" stroke-miterlimit="4"/><path stroke-linecap="round" transform="matrix(0.922683, 0, 0, 0.922683, -29.449072, 9.258845)" fill-opacity="1" fill="#000000" fill-rule="nonzero" stroke-linejoin="miter" d="M 61.568772 231.850803 L 184.710867 280.663962 " stroke="#ffffff" stroke-width="4.5" stroke-opacity="1" stroke-miterlimit="4"/><path stroke-linecap="round" transform="matrix(0.922683, 0, 0, 0.922683, -29.449072, 9.258845)" fill-opacity="1" fill="#000000" fill-rule="nonzero" stroke-linejoin="miter" d="M 184.710867 280.663962 L 307.848729 183.041878 " stroke="#ffffff" stroke-width="4.5" stroke-opacity="1" stroke-miterlimit="4"/><path stroke-linecap="round" transform="matrix(0.922683, 0, 0, 0.922683, -29.449072, 9.258845)" fill-opacity="1" fill="#000000" fill-rule="nonzero" stroke-linejoin="miter" d="M 307.848729 183.041878 L 430.990824 213.549044 " stroke="#ffffff" stroke-width="4.5" stroke-opacity="1" stroke-miterlimit="4"/><path fill="#000000" d="M 368.21875 206.296875 L 481.835938 9.257812 " fill-opacity="1" fill-rule="nonzero"/><g clip-path="url(#5d6e627549)"><path stroke-linecap="round" transform="matrix(0.922683, 0, 0, 0.922683, -29.449072, 9.258845)" fill="none" stroke-linejoin="miter" d="M 430.990824 213.549044 L 554.128685 -0.0011185 " stroke="#ffffff" stroke-width="4.5" stroke-opacity="1" stroke-miterlimit="4"/></g><path stroke-linecap="round" transform="matrix(0.922683, 0, 0, 0.922683, -29.449072, 9.258845)" fill-opacity="1" fill="#000000" fill-rule="nonzero" stroke-linejoin="miter" d="M 61.568772 195.243051 L 184.710867 122.027546 " stroke="#d9d9d9" stroke-width="4.5" stroke-opacity="1" stroke-miterlimit="4"/><path stroke-linecap="round" transform="matrix(0.922683, 0, 0, 0.922683, -29.449072, 9.258845)" fill-opacity="1" fill="#000000" fill-rule="nonzero" stroke-linejoin="miter" d="M 184.710867 122.027546 L 307.848729 152.534712 " stroke="#d9d9d9" stroke-width="4.5" stroke-opacity="1" stroke-miterlimit="4"/><path stroke-linecap="round" transform="matrix(0.922683, 0, 0, 0.922683, -29.449072, 9.258845)" fill-opacity="1" fill="#000000" fill-rule="nonzero" stroke-linejoin="miter" d="M 307.848729 152.534712 L 430.990824 61.013214 " stroke="#d9d9d9" stroke-width="4.5" stroke-opacity="1" stroke-miterlimit="4"/><path stroke-linecap="round" transform="matrix(0.922683, 0, 0, 0.922683, -29.449072, 9.258845)" fill-opacity="1" fill="#000000" fill-rule="nonzero" stroke-linejoin="miter" d="M 430.990824 61.013214 L 554.128685 48.812041 " stroke="#d9d9d9" stroke-width="4.5" stroke-opacity="1" stroke-miterlimit="4"/><path fill="#a6a6a6" d="M 31.972656 290.742188 C 31.972656 290.4375 31.945312 290.136719 31.886719 289.839844 C 31.824219 289.542969 31.738281 289.253906 31.621094 288.976562 C 31.507812 288.695312 31.363281 288.429688 31.195312 288.179688 C 31.027344 287.925781 30.835938 287.691406 30.621094 287.480469 C 30.410156 287.265625 30.175781 287.074219 29.921875 286.90625 C 29.671875 286.738281 29.40625 286.59375 29.125 286.480469 C 28.847656 286.363281 28.558594 286.277344 28.261719 286.214844 C 27.964844 286.15625 27.664062 286.128906 27.359375 286.128906 C 27.058594 286.128906 26.757812 286.15625 26.460938 286.214844 C 26.164062 286.277344 25.875 286.363281 25.59375 286.480469 C 25.316406 286.59375 25.050781 286.738281 24.796875 286.90625 C 24.546875 287.074219 24.3125 287.265625 24.097656 287.480469 C 23.882812 287.691406 23.691406 287.925781 23.523438 288.179688 C 23.355469 288.429688 23.214844 288.695312 23.097656 288.976562 C 22.980469 289.253906 22.894531 289.542969 22.835938 289.839844 C 22.777344 290.136719 22.746094 290.4375 22.746094 290.742188 C 22.746094 291.042969 22.777344 291.34375 22.835938 291.640625 C 22.894531 291.9375 22.980469 292.226562 23.097656 292.507812 C 23.214844 292.785156 23.355469 293.050781 23.523438 293.304688 C 23.691406 293.554688 23.882812 293.789062 24.097656 294.003906 C 24.3125 294.21875 24.546875 294.410156 24.796875 294.578125 C 25.050781 294.746094 25.316406 294.886719 25.59375 295.003906 C 25.875 295.121094 26.164062 295.207031 26.460938 295.265625 C 26.757812 295.324219 27.058594 295.355469 27.359375 295.355469 C 27.664062 295.355469 27.964844 295.324219 28.261719 295.265625 C 28.558594 295.207031 28.847656 295.121094 29.125 295.003906 C 29.40625 294.886719 29.671875 294.746094 29.921875 294.578125 C 30.175781 294.410156 30.410156 294.21875 30.621094 294.003906 C 30.835938 293.789062 31.027344 293.554688 31.195312 293.304688 C 31.363281 293.050781 31.507812 292.785156 31.621094 292.507812 C 31.738281 292.226562 31.824219 291.9375 31.886719 291.640625 C 31.945312 291.34375 31.972656 291.042969 31.972656 290.742188 Z M 31.972656 290.742188 " fill-opacity="1" fill-rule="nonzero"/><path fill="#a6a6a6" d="M 145.59375 223.183594 C 145.59375 222.882812 145.5625 222.582031 145.503906 222.285156 C 145.445312 221.988281 145.359375 221.699219 145.242188 221.417969 C 145.125 221.140625 144.984375 220.875 144.816406 220.621094 C 144.648438 220.371094 144.457031 220.136719 144.242188 219.921875 C 144.027344 219.707031 143.792969 219.519531 143.542969 219.347656 C 143.289062 219.179688 143.023438 219.039062 142.746094 218.921875 C 142.464844 218.808594 142.175781 218.71875 141.878906 218.660156 C 141.582031 218.601562 141.28125 218.570312 140.980469 218.570312 C 140.675781 218.570312 140.375 218.601562 140.078125 218.660156 C 139.78125 218.71875 139.492188 218.808594 139.214844 218.921875 C 138.933594 219.039062 138.667969 219.179688 138.417969 219.347656 C 138.164062 219.519531 137.929688 219.707031 137.71875 219.921875 C 137.503906 220.136719 137.3125 220.371094 137.144531 220.621094 C 136.976562 220.875 136.832031 221.140625 136.71875 221.417969 C 136.601562 221.699219 136.511719 221.988281 136.453125 222.285156 C 136.394531 222.582031 136.367188 222.882812 136.367188 223.183594 C 136.367188 223.488281 136.394531 223.789062 136.453125 224.085938 C 136.515625 224.382812 136.601562 224.671875 136.71875 224.949219 C 136.832031 225.230469 136.976562 225.496094 137.144531 225.75 C 137.3125 226 137.503906 226.234375 137.71875 226.449219 C 137.929688 226.660156 138.164062 226.851562 138.417969 227.019531 C 138.667969 227.191406 138.933594 227.332031 139.214844 227.449219 C 139.492188 227.5625 139.78125 227.652344 140.078125 227.710938 C 140.375 227.769531 140.675781 227.796875 140.980469 227.796875 C 141.28125 227.796875 141.582031 227.769531 141.878906 227.710938 C 142.175781 227.652344 142.464844 227.5625 142.746094 227.449219 C 143.023438 227.332031 143.289062 227.191406 143.542969 227.019531 C 143.792969 226.851562 144.027344 226.660156 144.242188 226.449219 C 144.457031 226.234375 144.648438 226 144.816406 225.75 C 144.984375 225.496094 145.125 225.230469 145.242188 224.949219 C 145.359375 224.671875 145.445312 224.382812 145.503906 224.085938 C 145.5625 223.789062 145.59375 223.488281 145.59375 223.183594 Z M 145.59375 223.183594 " fill-opacity="1" fill-rule="nonzero"/><path fill="#a6a6a6" d="M 259.210938 76.816406 C 259.210938 76.511719 259.183594 76.210938 259.125 75.914062 C 259.0625 75.617188 258.976562 75.328125 258.859375 75.050781 C 258.746094 74.769531 258.601562 74.503906 258.433594 74.25 C 258.265625 74 258.074219 73.765625 257.859375 73.550781 C 257.644531 73.339844 257.414062 73.148438 257.160156 72.980469 C 256.910156 72.808594 256.644531 72.667969 256.363281 72.550781 C 256.082031 72.4375 255.796875 72.347656 255.5 72.289062 C 255.203125 72.230469 254.902344 72.203125 254.597656 72.203125 C 254.296875 72.203125 253.996094 72.230469 253.699219 72.289062 C 253.402344 72.347656 253.113281 72.4375 252.832031 72.550781 C 252.554688 72.667969 252.289062 72.808594 252.035156 72.980469 C 251.785156 73.148438 251.550781 73.339844 251.335938 73.550781 C 251.121094 73.765625 250.929688 74 250.761719 74.25 C 250.59375 74.503906 250.453125 74.769531 250.335938 75.050781 C 250.21875 75.328125 250.132812 75.617188 250.074219 75.914062 C 250.015625 76.210938 249.984375 76.511719 249.984375 76.816406 C 249.984375 77.117188 250.015625 77.417969 250.074219 77.714844 C 250.132812 78.011719 250.21875 78.300781 250.335938 78.578125 C 250.453125 78.859375 250.59375 79.125 250.761719 79.378906 C 250.929688 79.628906 251.121094 79.863281 251.335938 80.078125 C 251.550781 80.289062 251.785156 80.480469 252.035156 80.652344 C 252.289062 80.820312 252.554688 80.960938 252.832031 81.078125 C 253.113281 81.191406 253.402344 81.28125 253.699219 81.339844 C 253.996094 81.398438 254.296875 81.429688 254.597656 81.429688 C 254.902344 81.429688 255.203125 81.398438 255.5 81.339844 C 255.796875 81.28125 256.082031 81.191406 256.363281 81.078125 C 256.644531 80.960938 256.910156 80.820312 257.160156 80.652344 C 257.414062 80.480469 257.644531 80.289062 257.859375 80.078125 C 258.074219 79.863281 258.265625 79.628906 258.433594 79.378906 C 258.601562 79.125 258.746094 78.859375 258.859375 78.578125 C 258.976562 78.300781 259.0625 78.011719 259.125 77.714844 C 259.183594 77.417969 259.210938 77.117188 259.210938 76.816406 Z M 259.210938 76.816406 " fill-opacity="1" fill-rule="nonzero"/><path fill="#a6a6a6" d="M 372.832031 121.851562 C 372.832031 121.550781 372.800781 121.25 372.742188 120.953125 C 372.683594 120.65625 372.59375 120.367188 372.480469 120.085938 C 372.363281 119.804688 372.222656 119.539062 372.054688 119.289062 C 371.886719 119.035156 371.695312 118.804688 371.480469 118.589844 C 371.265625 118.375 371.03125 118.183594 370.78125 118.015625 C 370.527344 117.847656 370.261719 117.707031 369.984375 117.589844 C 369.703125 117.472656 369.414062 117.386719 369.117188 117.328125 C 368.820312 117.269531 368.519531 117.238281 368.21875 117.238281 C 367.914062 117.238281 367.613281 117.269531 367.316406 117.328125 C 367.019531 117.386719 366.730469 117.472656 366.453125 117.589844 C 366.171875 117.707031 365.90625 117.847656 365.652344 118.015625 C 365.402344 118.183594 365.167969 118.375 364.957031 118.589844 C 364.742188 118.804688 364.550781 119.035156 364.382812 119.289062 C 364.214844 119.539062 364.070312 119.804688 363.953125 120.085938 C 363.839844 120.367188 363.75 120.65625 363.691406 120.953125 C 363.632812 121.25 363.605469 121.550781 363.605469 121.851562 C 363.605469 122.15625 363.632812 122.453125 363.691406 122.75 C 363.75 123.050781 363.839844 123.335938 363.953125 123.617188 C 364.070312 123.898438 364.214844 124.164062 364.382812 124.414062 C 364.550781 124.667969 364.742188 124.898438 364.957031 125.113281 C 365.167969 125.328125 365.402344 125.519531 365.652344 125.6875 C 365.90625 125.855469 366.171875 126 366.453125 126.113281 C 366.730469 126.230469 367.019531 126.316406 367.316406 126.375 C 367.613281 126.4375 367.914062 126.464844 368.21875 126.464844 C 368.519531 126.464844 368.820312 126.4375 369.117188 126.375 C 369.414062 126.316406 369.703125 126.230469 369.984375 126.113281 C 370.261719 126 370.527344 125.855469 370.78125 125.6875 C 371.03125 125.519531 371.265625 125.328125 371.480469 125.113281 C 371.695312 124.898438 371.886719 124.667969 372.054688 124.414062 C 372.222656 124.164062 372.363281 123.898438 372.480469 123.617188 C 372.59375 123.335938 372.683594 123.050781 372.742188 122.75 C 372.800781 122.453125 372.832031 122.15625 372.832031 121.851562 Z M 372.832031 121.851562 " fill-opacity="1" fill-rule="nonzero"/><path fill="#a6a6a6" d="M 486.449219 110.59375 C 486.449219 110.289062 486.421875 109.988281 486.359375 109.691406 C 486.300781 109.394531 486.214844 109.105469 486.097656 108.828125 C 485.984375 108.546875 485.839844 108.28125 485.671875 108.03125 C 485.503906 107.777344 485.3125 107.542969 485.097656 107.332031 C 484.882812 107.117188 484.652344 106.925781 484.398438 106.757812 C 484.148438 106.589844 483.882812 106.445312 483.601562 106.332031 C 483.320312 106.214844 483.035156 106.125 482.734375 106.066406 C 482.4375 106.007812 482.140625 105.980469 481.835938 105.980469 C 481.535156 105.980469 481.234375 106.007812 480.9375 106.066406 C 480.640625 106.125 480.351562 106.214844 480.070312 106.332031 C 479.789062 106.445312 479.523438 106.589844 479.273438 106.757812 C 479.019531 106.925781 478.789062 107.117188 478.574219 107.332031 C 478.359375 107.542969 478.167969 107.777344 478 108.03125 C 477.832031 108.28125 477.691406 108.546875 477.574219 108.828125 C 477.457031 109.105469 477.371094 109.394531 477.3125 109.691406 C 477.253906 109.988281 477.222656 110.289062 477.222656 110.59375 C 477.222656 110.894531 477.253906 111.195312 477.3125 111.492188 C 477.371094 111.789062 477.457031 112.078125 477.574219 112.359375 C 477.691406 112.636719 477.832031 112.902344 478 113.15625 C 478.167969 113.40625 478.359375 113.640625 478.574219 113.855469 C 478.789062 114.070312 479.019531 114.261719 479.273438 114.429688 C 479.523438 114.597656 479.789062 114.738281 480.070312 114.855469 C 480.351562 114.96875 480.640625 115.058594 480.9375 115.117188 C 481.234375 115.175781 481.535156 115.207031 481.835938 115.207031 C 482.140625 115.207031 482.4375 115.175781 482.734375 115.117188 C 483.035156 115.058594 483.320312 114.96875 483.601562 114.855469 C 483.882812 114.738281 484.148438 114.597656 484.398438 114.429688 C 484.652344 114.261719 484.882812 114.070312 485.097656 113.855469 C 485.3125 113.640625 485.503906 113.40625 485.671875 113.15625 C 485.839844 112.902344 485.984375 112.636719 486.097656 112.359375 C 486.214844 112.078125 486.300781 111.789062 486.359375 111.492188 C 486.421875 111.195312 486.449219 110.894531 486.449219 110.59375 Z M 486.449219 110.59375 " fill-opacity="1" fill-rule="nonzero"/><path fill="#ffffff" d="M 31.972656 223.183594 C 31.972656 222.882812 31.945312 222.582031 31.886719 222.285156 C 31.824219 221.988281 31.738281 221.699219 31.621094 221.417969 C 31.507812 221.140625 31.363281 220.875 31.195312 220.621094 C 31.027344 220.371094 30.835938 220.136719 30.621094 219.921875 C 30.410156 219.707031 30.175781 219.519531 29.921875 219.347656 C 29.671875 219.179688 29.40625 219.039062 29.125 218.921875 C 28.847656 218.808594 28.558594 218.71875 28.261719 218.660156 C 27.964844 218.601562 27.664062 218.570312 27.359375 218.570312 C 27.058594 218.570312 26.757812 218.601562 26.460938 218.660156 C 26.164062 218.71875 25.875 218.808594 25.59375 218.921875 C 25.316406 219.039062 25.050781 219.179688 24.796875 219.347656 C 24.546875 219.519531 24.3125 219.707031 24.097656 219.921875 C 23.882812 220.136719 23.691406 220.371094 23.523438 220.621094 C 23.355469 220.875 23.214844 221.140625 23.097656 221.417969 C 22.980469 221.699219 22.894531 221.988281 22.835938 222.285156 C 22.777344 222.582031 22.746094 222.882812 22.746094 223.183594 C 22.746094 223.488281 22.777344 223.789062 22.835938 224.085938 C 22.894531 224.382812 22.980469 224.671875 23.097656 224.949219 C 23.214844 225.230469 23.355469 225.496094 23.523438 225.75 C 23.691406 226 23.882812 226.234375 24.097656 226.449219 C 24.3125 226.660156 24.546875 226.851562 24.796875 227.019531 C 25.050781 227.191406 25.316406 227.332031 25.59375 227.449219 C 25.875 227.5625 26.164062 227.652344 26.460938 227.710938 C 26.757812 227.769531 27.058594 227.796875 27.359375 227.796875 C 27.664062 227.796875 27.964844 227.769531 28.261719 227.710938 C 28.558594 227.652344 28.847656 227.5625 29.125 227.449219 C 29.40625 227.332031 29.671875 227.191406 29.921875 227.019531 C 30.175781 226.851562 30.410156 226.660156 30.621094 226.449219 C 30.835938 226.234375 31.027344 226 31.195312 225.75 C 31.363281 225.496094 31.507812 225.230469 31.621094 224.949219 C 31.738281 224.671875 31.824219 224.382812 31.886719 224.085938 C 31.945312 223.789062 31.972656 223.488281 31.972656 223.183594 Z M 31.972656 223.183594 " fill-opacity="1" fill-rule="nonzero"/><path fill="#ffffff" d="M 145.59375 268.222656 C 145.59375 267.917969 145.5625 267.621094 145.503906 267.324219 C 145.445312 267.027344 145.359375 266.738281 145.242188 266.457031 C 145.125 266.175781 144.984375 265.910156 144.816406 265.660156 C 144.648438 265.40625 144.457031 265.175781 144.242188 264.960938 C 144.027344 264.746094 143.792969 264.554688 143.542969 264.386719 C 143.289062 264.21875 143.023438 264.078125 142.746094 263.960938 C 142.464844 263.84375 142.175781 263.757812 141.878906 263.699219 C 141.582031 263.640625 141.28125 263.609375 140.980469 263.609375 C 140.675781 263.609375 140.375 263.640625 140.078125 263.699219 C 139.78125 263.757812 139.492188 263.84375 139.214844 263.960938 C 138.933594 264.078125 138.667969 264.21875 138.417969 264.386719 C 138.164062 264.554688 137.929688 264.746094 137.71875 264.960938 C 137.503906 265.175781 137.3125 265.40625 137.144531 265.660156 C 136.976562 265.910156 136.832031 266.175781 136.71875 266.457031 C 136.601562 266.738281 136.511719 267.027344 136.453125 267.324219 C 136.394531 267.621094 136.367188 267.917969 136.367188 268.222656 C 136.367188 268.527344 136.394531 268.824219 136.453125 269.121094 C 136.515625 269.417969 136.601562 269.707031 136.71875 269.988281 C 136.832031 270.269531 136.976562 270.535156 137.144531 270.785156 C 137.3125 271.039062 137.503906 271.269531 137.71875 271.484375 C 137.929688 271.699219 138.164062 271.890625 138.417969 272.058594 C 138.667969 272.226562 138.933594 272.367188 139.214844 272.484375 C 139.492188 272.601562 139.78125 272.6875 140.078125 272.746094 C 140.375 272.804688 140.675781 272.835938 140.980469 272.835938 C 141.28125 272.835938 141.582031 272.804688 141.878906 272.746094 C 142.175781 272.6875 142.464844 272.601562 142.746094 272.484375 C 143.023438 272.367188 143.289062 272.226562 143.542969 272.058594 C 143.792969 271.890625 144.027344 271.699219 144.242188 271.484375 C 144.457031 271.269531 144.648438 271.039062 144.816406 270.785156 C 144.984375 270.535156 145.125 270.269531 145.242188 269.988281 C 145.359375 269.707031 145.445312 269.417969 145.503906 269.121094 C 145.5625 268.824219 145.59375 268.527344 145.59375 268.222656 Z M 145.59375 268.222656 " fill-opacity="1" fill-rule="nonzero"/><path fill="#ffffff" d="M 259.210938 178.148438 C 259.210938 177.84375 259.183594 177.546875 259.125 177.25 C 259.0625 176.949219 258.976562 176.664062 258.859375 176.382812 C 258.746094 176.101562 258.601562 175.835938 258.433594 175.585938 C 258.265625 175.332031 258.074219 175.101562 257.859375 174.886719 C 257.644531 174.671875 257.414062 174.480469 257.160156 174.3125 C 256.910156 174.144531 256.644531 174 256.363281 173.886719 C 256.082031 173.769531 255.796875 173.683594 255.5 173.625 C 255.203125 173.5625 254.902344 173.535156 254.597656 173.535156 C 254.296875 173.535156 253.996094 173.5625 253.699219 173.625 C 253.402344 173.683594 253.113281 173.769531 252.832031 173.886719 C 252.554688 174 252.289062 174.144531 252.035156 174.3125 C 251.785156 174.480469 251.550781 174.671875 251.335938 174.886719 C 251.121094 175.101562 250.929688 175.332031 250.761719 175.585938 C 250.59375 175.835938 250.453125 176.101562 250.335938 176.382812 C 250.21875 176.664062 250.132812 176.949219 250.074219 177.25 C 250.015625 177.546875 249.984375 177.84375 249.984375 178.148438 C 249.984375 178.449219 250.015625 178.75 250.074219 179.046875 C 250.132812 179.34375 250.21875 179.632812 250.335938 179.914062 C 250.453125 180.195312 250.59375 180.460938 250.761719 180.710938 C 250.929688 180.964844 251.121094 181.195312 251.335938 181.410156 C 251.550781 181.625 251.785156 181.816406 252.035156 181.984375 C 252.289062 182.152344 252.554688 182.292969 252.832031 182.410156 C 253.113281 182.527344 253.402344 182.613281 253.699219 182.671875 C 253.996094 182.730469 254.296875 182.761719 254.597656 182.761719 C 254.902344 182.761719 255.203125 182.730469 255.5 182.671875 C 255.796875 182.613281 256.082031 182.527344 256.363281 182.410156 C 256.644531 182.292969 256.910156 182.152344 257.160156 181.984375 C 257.414062 181.816406 257.644531 181.625 257.859375 181.410156 C 258.074219 181.195312 258.265625 180.964844 258.433594 180.710938 C 258.601562 180.460938 258.746094 180.195312 258.859375 179.914062 C 258.976562 179.632812 259.0625 179.34375 259.125 179.046875 C 259.183594 178.75 259.210938 178.449219 259.210938 178.148438 Z M 259.210938 178.148438 " fill-opacity="1" fill-rule="nonzero"/><path fill="#ffffff" d="M 372.832031 206.296875 C 372.832031 205.992188 372.800781 205.695312 372.742188 205.394531 C 372.683594 205.097656 372.59375 204.8125 372.480469 204.53125 C 372.363281 204.25 372.222656 203.984375 372.054688 203.734375 C 371.886719 203.480469 371.695312 203.25 371.480469 203.035156 C 371.265625 202.820312 371.03125 202.628906 370.78125 202.460938 C 370.527344 202.292969 370.261719 202.148438 369.984375 202.035156 C 369.703125 201.917969 369.414062 201.832031 369.117188 201.773438 C 368.820312 201.710938 368.519531 201.683594 368.21875 201.683594 C 367.914062 201.683594 367.613281 201.710938 367.316406 201.773438 C 367.019531 201.832031 366.730469 201.917969 366.453125 202.035156 C 366.171875 202.148438 365.90625 202.292969 365.652344 202.460938 C 365.402344 202.628906 365.167969 202.820312 364.957031 203.035156 C 364.742188 203.25 364.550781 203.480469 364.382812 203.734375 C 364.214844 203.984375 364.070312 204.25 363.953125 204.53125 C 363.839844 204.8125 363.75 205.097656 363.691406 205.394531 C 363.632812 205.695312 363.605469 205.992188 363.605469 206.296875 C 363.605469 206.597656 363.632812 206.898438 363.691406 207.195312 C 363.75 207.492188 363.839844 207.78125 363.953125 208.0625 C 364.070312 208.339844 364.214844 208.609375 364.382812 208.859375 C 364.550781 209.113281 364.742188 209.34375 364.957031 209.558594 C 365.167969 209.773438 365.402344 209.964844 365.652344 210.132812 C 365.90625 210.300781 366.171875 210.441406 366.453125 210.558594 C 366.730469 210.675781 367.019531 210.761719 367.316406 210.820312 C 367.613281 210.878906 367.914062 210.910156 368.21875 210.910156 C 368.519531 210.910156 368.820312 210.878906 369.117188 210.820312 C 369.414062 210.761719 369.703125 210.675781 369.984375 210.558594 C 370.261719 210.441406 370.527344 210.300781 370.78125 210.132812 C 371.03125 209.964844 371.265625 209.773438 371.480469 209.558594 C 371.695312 209.34375 371.886719 209.113281 372.054688 208.859375 C 372.222656 208.609375 372.363281 208.339844 372.480469 208.0625 C 372.59375 207.78125 372.683594 207.492188 372.742188 207.195312 C 372.800781 206.898438 372.832031 206.597656 372.832031 206.296875 Z M 372.832031 206.296875 " fill-opacity="1" fill-rule="nonzero"/><path fill="#ffffff" d="M 486.449219 9.257812 C 486.449219 8.957031 486.421875 8.65625 486.359375 8.359375 C 486.300781 8.0625 486.214844 7.773438 486.097656 7.492188 C 485.984375 7.214844 485.839844 6.949219 485.671875 6.695312 C 485.503906 6.445312 485.3125 6.210938 485.097656 5.996094 C 484.882812 5.78125 484.652344 5.589844 484.398438 5.421875 C 484.148438 5.253906 483.882812 5.113281 483.601562 4.996094 C 483.320312 4.878906 483.035156 4.792969 482.734375 4.734375 C 482.4375 4.675781 482.140625 4.644531 481.835938 4.644531 C 481.535156 4.644531 481.234375 4.675781 480.9375 4.734375 C 480.640625 4.792969 480.351562 4.878906 480.070312 4.996094 C 479.789062 5.113281 479.523438 5.253906 479.273438 5.421875 C 479.019531 5.589844 478.789062 5.78125 478.574219 5.996094 C 478.359375 6.210938 478.167969 6.445312 478 6.695312 C 477.832031 6.949219 477.691406 7.214844 477.574219 7.492188 C 477.457031 7.773438 477.371094 8.0625 477.3125 8.359375 C 477.253906 8.65625 477.222656 8.957031 477.222656 9.257812 C 477.222656 9.5625 477.253906 9.863281 477.3125 10.160156 C 477.371094 10.457031 477.457031 10.746094 477.574219 11.023438 C 477.691406 11.304688 477.832031 11.570312 478 11.820312 C 478.167969 12.074219 478.359375 12.308594 478.574219 12.519531 C 478.789062 12.734375 479.019531 12.925781 479.273438 13.09375 C 479.523438 13.261719 479.789062 13.40625 480.070312 13.519531 C 480.351562 13.636719 480.640625 13.722656 480.9375 13.785156 C 481.234375 13.84375 481.535156 13.871094 481.835938 13.871094 C 482.140625 13.871094 482.4375 13.84375 482.734375 13.785156 C 483.035156 13.722656 483.320312 13.636719 483.601562 13.519531 C 483.882812 13.40625 484.148438 13.261719 484.398438 13.09375 C 484.652344 12.925781 484.882812 12.734375 485.097656 12.519531 C 485.3125 12.308594 485.503906 12.074219 485.671875 11.820312 C 485.839844 11.570312 485.984375 11.304688 486.097656 11.023438 C 486.214844 10.746094 486.300781 10.457031 486.359375 10.160156 C 486.421875 9.863281 486.449219 9.5625 486.449219 9.257812 Z M 486.449219 9.257812 " fill-opacity="1" fill-rule="nonzero"/><path fill="#d9d9d9" d="M 31.972656 189.40625 C 31.972656 189.105469 31.945312 188.804688 31.886719 188.507812 C 31.824219 188.210938 31.738281 187.921875 31.621094 187.640625 C 31.507812 187.363281 31.363281 187.097656 31.195312 186.84375 C 31.027344 186.59375 30.835938 186.359375 30.621094 186.144531 C 30.410156 185.929688 30.175781 185.738281 29.921875 185.570312 C 29.671875 185.402344 29.40625 185.261719 29.125 185.144531 C 28.847656 185.03125 28.558594 184.941406 28.261719 184.882812 C 27.964844 184.824219 27.664062 184.792969 27.359375 184.792969 C 27.058594 184.792969 26.757812 184.824219 26.460938 184.882812 C 26.164062 184.941406 25.875 185.03125 25.59375 185.144531 C 25.316406 185.261719 25.050781 185.402344 24.796875 185.570312 C 24.546875 185.738281 24.3125 185.929688 24.097656 186.144531 C 23.882812 186.359375 23.691406 186.59375 23.523438 186.84375 C 23.355469 187.097656 23.214844 187.363281 23.097656 187.640625 C 22.980469 187.921875 22.894531 188.210938 22.835938 188.507812 C 22.777344 188.804688 22.746094 189.105469 22.746094 189.40625 C 22.746094 189.710938 22.777344 190.011719 22.835938 190.308594 C 22.894531 190.605469 22.980469 190.894531 23.097656 191.171875 C 23.214844 191.453125 23.355469 191.71875 23.523438 191.96875 C 23.691406 192.222656 23.882812 192.457031 24.097656 192.667969 C 24.3125 192.882812 24.546875 193.074219 24.796875 193.242188 C 25.050781 193.410156 25.316406 193.554688 25.59375 193.667969 C 25.875 193.785156 26.164062 193.875 26.460938 193.933594 C 26.757812 193.992188 27.058594 194.019531 27.359375 194.019531 C 27.664062 194.019531 27.964844 193.992188 28.261719 193.933594 C 28.558594 193.875 28.847656 193.785156 29.125 193.667969 C 29.40625 193.554688 29.671875 193.410156 29.921875 193.242188 C 30.175781 193.074219 30.410156 192.882812 30.621094 192.667969 C 30.835938 192.457031 31.027344 192.222656 31.195312 191.96875 C 31.363281 191.71875 31.507812 191.453125 31.621094 191.171875 C 31.738281 190.894531 31.824219 190.605469 31.886719 190.308594 C 31.945312 190.011719 31.972656 189.710938 31.972656 189.40625 Z M 31.972656 189.40625 " fill-opacity="1" fill-rule="nonzero"/><path fill="#d9d9d9" d="M 145.59375 121.851562 C 145.59375 121.550781 145.5625 121.25 145.503906 120.953125 C 145.445312 120.65625 145.359375 120.367188 145.242188 120.085938 C 145.125 119.804688 144.984375 119.539062 144.816406 119.289062 C 144.648438 119.035156 144.457031 118.804688 144.242188 118.589844 C 144.027344 118.375 143.792969 118.183594 143.542969 118.015625 C 143.289062 117.847656 143.023438 117.707031 142.746094 117.589844 C 142.464844 117.472656 142.175781 117.386719 141.878906 117.328125 C 141.582031 117.269531 141.28125 117.238281 140.980469 117.238281 C 140.675781 117.238281 140.375 117.269531 140.078125 117.328125 C 139.78125 117.386719 139.492188 117.472656 139.214844 117.589844 C 138.933594 117.707031 138.667969 117.847656 138.417969 118.015625 C 138.164062 118.183594 137.929688 118.375 137.71875 118.589844 C 137.503906 118.804688 137.3125 119.035156 137.144531 119.289062 C 136.976562 119.539062 136.832031 119.804688 136.71875 120.085938 C 136.601562 120.367188 136.511719 120.65625 136.453125 120.953125 C 136.394531 121.25 136.367188 121.550781 136.367188 121.851562 C 136.367188 122.15625 136.394531 122.453125 136.453125 122.75 C 136.515625 123.050781 136.601562 123.335938 136.71875 123.617188 C 136.832031 123.898438 136.976562 124.164062 137.144531 124.414062 C 137.3125 124.667969 137.503906 124.898438 137.71875 125.113281 C 137.929688 125.328125 138.164062 125.519531 138.417969 125.6875 C 138.667969 125.855469 138.933594 126 139.214844 126.113281 C 139.492188 126.230469 139.78125 126.316406 140.078125 126.375 C 140.375 126.4375 140.675781 126.464844 140.980469 126.464844 C 141.28125 126.464844 141.582031 126.4375 141.878906 126.375 C 142.175781 126.316406 142.464844 126.230469 142.746094 126.113281 C 143.023438 126 143.289062 125.855469 143.542969 125.6875 C 143.792969 125.519531 144.027344 125.328125 144.242188 125.113281 C 144.457031 124.898438 144.648438 124.667969 144.816406 124.414062 C 144.984375 124.164062 145.125 123.898438 145.242188 123.617188 C 145.359375 123.335938 145.445312 123.050781 145.503906 122.75 C 145.5625 122.453125 145.59375 122.15625 145.59375 121.851562 Z M 145.59375 121.851562 " fill-opacity="1" fill-rule="nonzero"/><path fill="#d9d9d9" d="M 259.210938 150 C 259.210938 149.695312 259.183594 149.398438 259.125 149.101562 C 259.0625 148.804688 258.976562 148.515625 258.859375 148.234375 C 258.746094 147.953125 258.601562 147.6875 258.433594 147.4375 C 258.265625 147.183594 258.074219 146.953125 257.859375 146.738281 C 257.644531 146.523438 257.414062 146.332031 257.160156 146.164062 C 256.910156 145.996094 256.644531 145.855469 256.363281 145.738281 C 256.082031 145.621094 255.796875 145.535156 255.5 145.476562 C 255.203125 145.417969 254.902344 145.386719 254.597656 145.386719 C 254.296875 145.386719 253.996094 145.417969 253.699219 145.476562 C 253.402344 145.535156 253.113281 145.621094 252.832031 145.738281 C 252.554688 145.855469 252.289062 145.996094 252.035156 146.164062 C 251.785156 146.332031 251.550781 146.523438 251.335938 146.738281 C 251.121094 146.953125 250.929688 147.183594 250.761719 147.4375 C 250.59375 147.6875 250.453125 147.953125 250.335938 148.234375 C 250.21875 148.515625 250.132812 148.804688 250.074219 149.101562 C 250.015625 149.398438 249.984375 149.695312 249.984375 150 C 249.984375 150.304688 250.015625 150.601562 250.074219 150.898438 C 250.132812 151.195312 250.21875 151.484375 250.335938 151.765625 C 250.453125 152.046875 250.59375 152.3125 250.761719 152.5625 C 250.929688 152.816406 251.121094 153.046875 251.335938 153.261719 C 251.550781 153.476562 251.785156 153.667969 252.035156 153.835938 C 252.289062 154.003906 252.554688 154.144531 252.832031 154.261719 C 253.113281 154.378906 253.402344 154.464844 253.699219 154.523438 C 253.996094 154.582031 254.296875 154.613281 254.597656 154.613281 C 254.902344 154.613281 255.203125 154.582031 255.5 154.523438 C 255.796875 154.464844 256.082031 154.378906 256.363281 154.261719 C 256.644531 154.144531 256.910156 154.003906 257.160156 153.835938 C 257.414062 153.667969 257.644531 153.476562 257.859375 153.261719 C 258.074219 153.046875 258.265625 152.816406 258.433594 152.5625 C 258.601562 152.3125 258.746094 152.046875 258.859375 151.765625 C 258.976562 151.484375 259.0625 151.195312 259.125 150.898438 C 259.183594 150.601562 259.210938 150.304688 259.210938 150 Z M 259.210938 150 " fill-opacity="1" fill-rule="nonzero"/><path fill="#d9d9d9" d="M 372.832031 65.554688 C 372.832031 65.253906 372.800781 64.953125 372.742188 64.65625 C 372.683594 64.359375 372.59375 64.070312 372.480469 63.789062 C 372.363281 63.511719 372.222656 63.242188 372.054688 62.992188 C 371.886719 62.742188 371.695312 62.507812 371.480469 62.292969 C 371.265625 62.078125 371.03125 61.886719 370.78125 61.71875 C 370.527344 61.550781 370.261719 61.410156 369.984375 61.292969 C 369.703125 61.175781 369.414062 61.089844 369.117188 61.03125 C 368.820312 60.972656 368.519531 60.941406 368.21875 60.941406 C 367.914062 60.941406 367.613281 60.972656 367.316406 61.03125 C 367.019531 61.089844 366.730469 61.175781 366.453125 61.292969 C 366.171875 61.410156 365.90625 61.550781 365.652344 61.71875 C 365.402344 61.886719 365.167969 62.078125 364.957031 62.292969 C 364.742188 62.507812 364.550781 62.742188 364.382812 62.992188 C 364.214844 63.242188 364.070312 63.511719 363.953125 63.789062 C 363.839844 64.070312 363.75 64.359375 363.691406 64.65625 C 363.632812 64.953125 363.605469 65.253906 363.605469 65.554688 C 363.605469 65.859375 363.632812 66.160156 363.691406 66.457031 C 363.75 66.753906 363.839844 67.039062 363.953125 67.320312 C 364.070312 67.601562 364.214844 67.867188 364.382812 68.117188 C 364.550781 68.371094 364.742188 68.601562 364.957031 68.816406 C 365.167969 69.03125 365.402344 69.222656 365.652344 69.390625 C 365.90625 69.558594 366.171875 69.703125 366.453125 69.816406 C 366.730469 69.933594 367.019531 70.019531 367.316406 70.078125 C 367.613281 70.140625 367.914062 70.167969 368.21875 70.167969 C 368.519531 70.167969 368.820312 70.140625 369.117188 70.078125 C 369.414062 70.019531 369.703125 69.933594 369.984375 69.816406 C 370.261719 69.703125 370.527344 69.558594 370.78125 69.390625 C 371.03125 69.222656 371.265625 69.03125 371.480469 68.816406 C 371.695312 68.601562 371.886719 68.371094 372.054688 68.117188 C 372.222656 67.867188 372.363281 67.601562 372.480469 67.320312 C 372.59375 67.039062 372.683594 66.753906 372.742188 66.457031 C 372.800781 66.160156 372.832031 65.859375 372.832031 65.554688 Z M 372.832031 65.554688 " fill-opacity="1" fill-rule="nonzero"/><path fill="#d9d9d9" d="M 486.449219 54.296875 C 486.449219 53.992188 486.421875 53.691406 486.359375 53.394531 C 486.300781 53.097656 486.214844 52.808594 486.097656 52.53125 C 485.984375 52.25 485.839844 51.984375 485.671875 51.734375 C 485.503906 51.480469 485.3125 51.246094 485.097656 51.035156 C 484.882812 50.820312 484.652344 50.628906 484.398438 50.460938 C 484.148438 50.292969 483.882812 50.148438 483.601562 50.035156 C 483.320312 49.917969 483.035156 49.832031 482.734375 49.769531 C 482.4375 49.710938 482.140625 49.683594 481.835938 49.683594 C 481.535156 49.683594 481.234375 49.710938 480.9375 49.769531 C 480.640625 49.832031 480.351562 49.917969 480.070312 50.035156 C 479.789062 50.148438 479.523438 50.292969 479.273438 50.460938 C 479.019531 50.628906 478.789062 50.820312 478.574219 51.035156 C 478.359375 51.246094 478.167969 51.480469 478 51.734375 C 477.832031 51.984375 477.691406 52.25 477.574219 52.53125 C 477.457031 52.808594 477.371094 53.097656 477.3125 53.394531 C 477.253906 53.691406 477.222656 53.992188 477.222656 54.296875 C 477.222656 54.597656 477.253906 54.898438 477.3125 55.195312 C 477.371094 55.492188 477.457031 55.78125 477.574219 56.0625 C 477.691406 56.339844 477.832031 56.605469 478 56.859375 C 478.167969 57.109375 478.359375 57.34375 478.574219 57.558594 C 478.789062 57.773438 479.019531 57.964844 479.273438 58.132812 C 479.523438 58.300781 479.789062 58.441406 480.070312 58.558594 C 480.351562 58.675781 480.640625 58.761719 480.9375 58.820312 C 481.234375 58.878906 481.535156 58.910156 481.835938 58.910156 C 482.140625 58.910156 482.4375 58.878906 482.734375 58.820312 C 483.035156 58.761719 483.320312 58.675781 483.601562 58.558594 C 483.882812 58.441406 484.148438 58.300781 484.398438 58.132812 C 484.652344 57.964844 484.882812 57.773438 485.097656 57.558594 C 485.3125 57.34375 485.503906 57.109375 485.671875 56.859375 C 485.839844 56.605469 485.984375 56.339844 486.097656 56.0625 C 486.214844 55.78125 486.300781 55.492188 486.359375 55.195312 C 486.421875 54.898438 486.449219 54.597656 486.449219 54.296875 Z M 486.449219 54.296875 " fill-opacity="1" fill-rule="nonzero"/></svg>